<svg width="88" height="59" viewBox="0 0 88 59" fill="none" xmlns="http://www.w3.org/2000/svg">
<path d="M2.92979 0.234711C2.03673 0.526321 0.505765 2.09374 0.232379 3.02325C-0.0774596 4.1168 -0.0774596 45.4529 0.232379 46.5464C0.523991 47.5488 2.03673 49.0616 3.03915 49.3532C3.58592 49.5172 6.59317 49.5719 14.3209 49.5719H24.8554L24.7278 50.1551C24.5273 51.2122 23.3973 53.2717 22.4314 54.3653L21.4836 55.4041H19.9527C18.5493 55.4041 18.367 55.4406 17.9661 55.8598C17.3646 56.443 17.3646 57.2814 17.9661 57.8646L18.4035 58.3203H27.7168H37.0302L37.4676 57.8646C37.7593 57.5912 37.9233 57.2085 37.9233 56.8622C37.9233 56.5159 37.7593 56.1332 37.4676 55.8598L37.0302 55.4041H31.2709C28.1178 55.4041 25.5298 55.3677 25.5298 55.3312C25.5298 55.2948 25.8214 54.7845 26.1677 54.2012C26.9331 52.9254 27.4617 51.5949 27.6257 50.4285L27.7533 49.5719H32.4009H37.0302L37.4676 49.1162C38.0691 48.533 38.0691 47.6946 37.4676 47.1114L37.0302 46.6558H20.4265H3.82286L3.38544 46.2001C2.92979 45.7627 2.92979 45.7627 2.92979 41.8259V37.9074H19.9709H37.0302L37.4676 37.4517C37.7593 37.1784 37.9233 36.7956 37.9233 36.4493C37.9233 36.103 37.7593 35.7203 37.4676 35.4469L37.0302 34.9913H19.9709H2.92979V19.4082V3.80696L3.38544 3.36954L3.82286 2.9139H32.091H60.3592L60.7966 3.36954C61.0882 3.64293 61.2523 4.02567 61.2523 4.37196C61.2523 5.64776 62.8197 6.28567 63.7128 5.37438C64.2231 4.88228 64.296 4.1897 63.9497 3.02325C63.6581 2.02084 62.1453 0.508095 61.1429 0.216484C60.1223 -0.0751305 3.89576 -0.0751305 2.92979 0.234711Z" fill="#515151"/>
<path d="M43.7555 8.98308C42.8625 9.27469 41.3315 10.8421 41.0581 11.7716C40.7483 12.8287 40.7483 54.2012 41.0581 55.2401C41.3497 56.2425 42.3886 57.3907 43.4639 57.8828L44.3934 58.3203H53.8344H63.2753L63.7128 57.8646C64.3142 57.2814 64.3142 56.443 63.7128 55.8598L63.2753 55.4041H53.962H44.6486L44.2112 54.9485C43.7555 54.5111 43.7555 54.5111 43.7555 50.5743V46.6558H53.5063H63.2753L63.7128 46.2001C64.3142 45.6169 64.3142 44.7785 63.7128 44.1953L63.2753 43.7396H53.5063H43.7555V30.6171V17.4945H58.3362H72.9168V19.955C72.9168 22.3426 72.935 22.4519 73.3724 22.8711C73.9556 23.4726 74.794 23.4726 75.3773 22.8711L75.8329 22.4337V17.4763C75.8329 14.1227 75.76 12.2819 75.6142 11.7716C75.3226 10.7692 73.8098 9.25647 72.8074 8.96486C71.7868 8.67324 44.7033 8.69147 43.7555 8.98308ZM72.4611 12.1179C72.8439 12.4824 72.9168 12.7376 72.9168 13.576V14.5784H58.3362H43.7555V13.576C43.7555 12.7376 43.8284 12.4824 44.2112 12.1179L44.6486 11.6623H58.3362H72.0237L72.4611 12.1179Z" fill="#515151"/>
<path d="M6.30153 12.1179C5.86411 12.5371 5.84589 12.6829 5.84589 14.5784C5.84589 16.4739 5.86411 16.6197 6.30153 17.0389C6.57492 17.3305 6.95766 17.4945 7.30395 17.4945C7.65024 17.4945 8.03298 17.3305 8.30637 17.0389C8.74378 16.6197 8.76201 16.4739 8.76201 14.5784C8.76201 12.6829 8.74378 12.5371 8.30637 12.1179C8.03298 11.8263 7.65024 11.6623 7.30395 11.6623C6.95766 11.6623 6.57492 11.8263 6.30153 12.1179Z" fill="#515151"/>
<path d="M6.30153 20.8663L5.84589 21.3038V26.2429V31.1821L6.30153 31.6196C6.57492 31.9112 6.95766 32.0752 7.30395 32.0752C7.65024 32.0752 8.03298 31.9112 8.30637 31.6196L8.76201 31.1821V26.2429V21.3038L8.30637 20.8663C8.03298 20.5747 7.65024 20.4107 7.30395 20.4107C6.95766 20.4107 6.57492 20.5747 6.30153 20.8663Z" fill="#515151"/>
<path d="M47.1273 20.8663C46.6899 21.2855 46.6716 21.4313 46.6716 23.3268C46.6716 25.2223 46.6899 25.3681 47.1273 25.7873C47.4007 26.0789 47.7834 26.2429 48.1297 26.2429C48.476 26.2429 48.8587 26.0789 49.1321 25.7873C49.5695 25.3681 49.5878 25.2223 49.5878 23.3268C49.5878 21.4313 49.5695 21.2855 49.1321 20.8663C48.8587 20.5747 48.476 20.4107 48.1297 20.4107C47.7834 20.4107 47.4007 20.5747 47.1273 20.8663Z" fill="#515151"/>
<path d="M70.0007 26.4798C69.1076 26.7714 67.5766 28.3389 67.3032 29.2684C66.9934 30.3255 66.9934 54.2195 67.3032 55.2401C67.5949 56.2425 68.6337 57.3907 69.709 57.8828C70.6386 58.3203 70.6932 58.3203 77.291 58.3203C83.5971 58.3203 83.9798 58.2838 84.7635 57.9375C85.8571 57.4454 86.5497 56.7711 87.06 55.6775L87.4974 54.7662V42.3909C87.4974 33.2051 87.4427 29.8334 87.2787 29.2684C86.9871 28.2659 85.4743 26.7532 84.4719 26.4616C83.4877 26.17 70.9302 26.1882 70.0007 26.4798ZM84.1256 29.6147C84.5084 29.9792 84.5813 30.2343 84.5813 31.0727V32.0751H77.291H70.0007V31.0727C70.0007 30.2343 70.0736 29.9792 70.4563 29.6147L70.8937 29.159H77.291H83.6882L84.1256 29.6147ZM84.5813 42.2816V49.5719H77.291H70.0007V42.2816V34.9913H77.291H84.5813V42.2816ZM84.5813 53.4904C84.5813 54.3288 84.5084 54.584 84.1256 54.9485L83.6882 55.4041H77.291H70.8937L70.4563 54.9485C70.0736 54.584 70.0007 54.3288 70.0007 53.4904V52.488H77.291H84.5813V53.4904Z" fill="#515151"/>
<path d="M47.1273 29.6146L46.6716 30.0521V34.9912V39.9304L47.1273 40.3678C47.4007 40.6595 47.7834 40.8235 48.1297 40.8235C48.476 40.8235 48.8587 40.6595 49.1321 40.3678L49.5878 39.9304V34.9912V30.0521L49.1321 29.6146C48.8587 29.323 48.476 29.159 48.1297 29.159C47.7834 29.159 47.4007 29.323 47.1273 29.6146Z" fill="#515151"/>
<path d="M29.6488 41.2062C29.2843 41.4979 29.1749 41.7348 29.1749 42.2816C29.1749 42.8283 29.2843 43.0653 29.6488 43.3569C30.068 43.6849 30.3961 43.7396 32.1275 43.7396C33.9865 43.7396 34.1323 43.7214 34.5515 43.284C34.8431 43.0106 35.0072 42.6279 35.0072 42.2816C35.0072 41.9353 34.8431 41.5525 34.5515 41.2791C34.1323 40.8417 33.9865 40.8235 32.1275 40.8235C30.3961 40.8235 30.068 40.8782 29.6488 41.2062Z" fill="#515151"/>
<path d="M55.8756 50.0275C55.584 50.3009 55.42 50.6836 55.42 51.0299C55.42 51.3762 55.584 51.7589 55.8756 52.0323C56.2948 52.4698 56.4406 52.488 58.3361 52.488C60.2316 52.488 60.3774 52.4698 60.7966 52.0323C61.0882 51.7589 61.2522 51.3762 61.2522 51.0299C61.2522 50.6836 61.0882 50.3009 60.7966 50.0275C60.3774 49.5901 60.2316 49.5719 58.3361 49.5719C56.4406 49.5719 56.2948 49.5901 55.8756 50.0275Z" fill="#515151"/>
</svg>
